<?xml version="1.0" encoding="UTF-8" standalone="no"?><!DOCTYPE svg PUBLIC "-//W3C//DTD SVG 1.1//EN" "http://www.w3.org/Graphics/SVG/1.1/DTD/svg11.dtd"><svg width="100%" height="100%" viewBox="0 0 1621 480" version="1.1" xmlns="http://www.w3.org/2000/svg" xmlns:xlink="http://www.w3.org/1999/xlink" xml:space="preserve" xmlns:serif="http://www.serif.com/" style="fill-rule:evenodd;clip-rule:evenodd;stroke-linejoin:round;stroke-miterlimit:2;"><path d="M471.008,192.921l46.841,-68.675l0,-0.379l-42.812,-0l-0,-9.167l57.116,-0l0,6.658l-46.704,68.425l0,0.379l47.334,0l-0,9.167l-61.775,0l-0,-6.408Z" style="fill:#0066b3;fill-rule:nonzero;"/><path d="M625.398,164.171l-8.408,-24.354c-1.888,-5.525 -3.134,-10.546 -4.388,-15.442l-0.246,0c-1.262,4.896 -2.516,10.167 -4.275,15.317l-8.283,24.479l25.6,0Zm-27.863,8.538l-8.8,26.62l-11.3,0l28.888,-84.629l13.058,0l28.867,84.629l-11.667,0l-9.037,-26.62l-30.009,-0Z" style="fill:#0066b3;fill-rule:nonzero;"/><path d="M709.232,114.7l-0,35.409l40.929,-0l-0,-35.409l11.054,0l0,84.629l-11.054,0l-0,-39.675l-40.929,0l-0,39.675l-11.038,0l0,-84.629l11.038,0Z" style="fill:#0066b3;fill-rule:nonzero;"/><path d="M817.793,199.327l-0,-84.629l12.046,0l26.996,42.821c6.15,9.913 11.183,18.829 15.07,27.492l0.371,-0.125c-1,-11.3 -1.254,-21.592 -1.254,-34.779l0,-35.409l10.296,0l-0,84.629l-11.042,0l-26.858,-42.941c-5.917,-9.413 -11.554,-19.084 -15.7,-28.25l-0.371,0.129c0.625,10.671 0.746,20.842 0.746,34.904l-0,36.158l-10.3,0Z" style="fill:#0066b3;fill-rule:nonzero;"/><path d="M954.113,123.996l-25.742,-0l0,-9.296l62.634,-0l-0,9.296l-25.855,-0l0,75.333l-11.037,0l-0,-75.333Z" style="fill:#0066b3;fill-rule:nonzero;"/><path d="M1081.76,159.653l-32.775,-0l-0,30.508l36.666,0l0,9.167l-47.712,-0l-0,-84.629l45.821,-0l-0,9.17l-34.775,0l-0,26.738l32.775,-0l-0,9.046Z" style="fill:#0066b3;fill-rule:nonzero;"/><path d="M1196.48,196.689c-3.891,2.004 -12.066,4.016 -22.362,4.016c-23.854,0 -41.671,-15.062 -41.671,-42.941c0,-26.613 17.958,-44.442 44.188,-44.442c10.408,-0 17.212,2.258 20.104,3.767l-2.775,8.916c-4.029,-2.008 -9.921,-3.521 -16.959,-3.521c-19.825,0 -33.008,12.68 -33.008,34.909c0,20.837 11.929,34.025 32.379,34.025c6.779,-0 13.559,-1.379 17.959,-3.517l2.145,8.788Z" style="fill:#0066b3;fill-rule:nonzero;"/><path d="M1258.84,114.7l0,35.409l40.925,-0l0,-35.409l11.071,0l0,84.629l-11.071,0l0,-39.675l-40.925,0l0,39.675l-11.062,0l-0,-84.629l11.062,0Z" style="fill:#0066b3;fill-rule:nonzero;"/><path d="M1367.41,199.327l-0,-84.629l12.041,0l26.975,42.821c6.171,9.913 11.184,18.829 15.071,27.492l0.396,-0.125c-1.004,-11.3 -1.258,-21.592 -1.258,-34.779l-0,-35.409l10.27,0l0,84.629l-11.037,0l-26.858,-42.941c-5.896,-9.413 -11.555,-19.084 -15.7,-28.25l-0.375,0.129c0.633,10.671 0.745,20.842 0.745,34.904l0,36.158l-10.27,0Z" style="fill:#0066b3;fill-rule:nonzero;"/><rect x="1487.5" y="114.697" width="11.063" height="84.629" style="fill:#0066b3;"/><path d="M1555.28,114.7l10.925,0l-0,40.804l0.375,0c2.258,-3.258 4.521,-6.275 6.662,-9.037l25.854,-31.767l13.559,0l-30.634,35.909l33.034,48.72l-12.929,0l-27.767,-41.566l-8.154,9.296l-0,32.27l-10.925,0l-0,-84.629Z" style="fill:#0066b3;fill-rule:nonzero;"/><path d="M216.731,275.437c-12.533,-3.171 -26.029,-4.055 -40.238,-1.538c-10.029,1.767 -5.566,8.013 -14.395,12.296c-11.567,5.642 -27.767,5.729 -34.067,13.629c-5.696,7.138 -7.9,21.729 -11.908,32.354c-3.863,10.225 -8.159,27.229 -13.638,37.104c-8.604,15.538 -19.554,83.817 -41.708,83.58c-25.459,-0.3 -24.688,-72.792 -24.734,-93.409c-0.141,-65.754 37.371,-114.629 35.78,-163.533c-0.838,-25.429 -21.455,-36.5 -31.971,-52.871c-5.184,-8.062 -16.413,-20.083 -20.113,-49.292c-5.358,-42.241 25.909,-70.087 53.025,-77.858c50.279,-14.408 93.792,16.204 130.984,35.792c2.5,0.779 2.162,-0.463 5.433,-2.038c20.958,-10.15 46.337,-28.425 75.15,-31.212c35.604,-3.454 71.954,-4.375 93.15,25.483c10.737,15.092 14.792,34.8 10.017,50.796c-3.68,12.271 -8.863,25.996 -21.788,48.412c-10.987,19.046 -32.637,45.638 -34.187,59.213c-0.467,3.925 -0.417,7.95 -0.171,11.987c6.975,5.442 14.379,-9.229 16.325,-13.495c3.6,-15.446 30.108,-43.588 38.608,-56.492c18.463,-28.008 30.063,-53.025 20.525,-93.042c-6.642,-27.808 -38.412,-43.158 -55.625,-47.333c-19.287,-4.671 -45.829,-1.196 -66.087,2.25c-43.559,7.425 -72.538,25.6 -80.421,26.421c-11.438,1.183 -48.442,-25.034 -76.413,-29.763c-47.137,-7.966 -66.8,2.017 -88.075,12.759c-24.087,12.183 -35.929,35.829 -39.179,59c-4.767,33.962 8.163,54.908 21.488,75.912c9.641,15.213 31.829,28.246 31.55,54.021c-0.163,13.079 -9.642,28.937 -14.992,45.729c-6.742,21.142 -14.988,42.838 -20.042,69.979c-6.429,34.496 -6.316,86.954 -4.633,99.717c3.233,24.554 23.312,65.387 53.687,58.912c45.33,-9.625 49.48,-137.945 76.617,-166.433c7.729,-8.1 23.196,-1.375 37.875,-9.237c9.154,-4.905 5.658,-13.871 18.167,-15.084c4.241,-0.396 7.941,-0.046 11.275,0.817c4.404,-5.988 5.566,-10.392 4.729,-13.533" style="fill:#0066b3;"/><path d="M92.272,157.754c-1.621,0.046 -4.808,-0.433 -4.217,2.413c1.517,11.558 2.596,22.325 13.746,24.237c2.071,0.225 2.704,-3.295 2.704,-3.295c2.788,-9.267 -5.154,-23.575 -12.233,-23.355" style="fill:#0066b3;"/><path d="M71.846,49.682c1.571,-2.213 -0.921,-2.255 -1.675,-2.2c-33.129,5.037 -33.033,68.4 1.696,71.554c9.4,-0.475 -25.6,-33.046 -0.021,-69.354" style="fill:#0066b3;"/><path d="M346.036,74.619c10.321,1.42 17.542,16.07 22.15,1.7c3.996,-12.446 -1.979,-32.492 -18.75,-28.955c-13.067,2.755 -17.725,14.309 -32.354,17.034c-11.834,2.208 -16.888,-2.238 -32.354,-3.417c-10.555,-0.767 -24.063,7.667 -22.15,13.638c13.029,24.162 60.42,-3.192 83.458,-0" style="fill:#0066b3;"/><path d="M258.263,299.452c-1.116,-1.121 0.7,0.7 0,-0" style="fill:#fff;"/><path d="M257.474,309.697c-1.121,-1.116 0.7,0.725 -0,0" style="fill:#fff;"/><path d="M291.922,343.987c-23.708,-8.246 -34.171,-15.354 -34.171,-29.788c0,-10.533 8.921,-23.112 32.388,-23.112c15.579,-0 27.058,4.333 32.416,7.317l6.113,-16.263c-7.392,-3.896 -20.413,-7.558 -37.746,-7.558c-33.425,-0 -55.625,17.871 -55.625,41.916c0,21.525 17.354,34.825 45.4,43.98c23.225,7.804 32.413,16.258 32.413,30.47c-0,15.584 -13.267,26.367 -35.967,26.367c-15.317,0 -29.592,-4.354 -39.55,-10.083l-5.858,16.7c9.179,5.521 27.279,10.083 43.87,10.083c40.567,0 59.95,-20.821 59.95,-44.65c0,-22.692 -14.537,-35.292 -43.633,-45.379" style="fill:#636466;fill-rule:nonzero;"/><path d="M422.928,291.309c12.833,0 23.596,2.738 30.937,6.417l5.03,-16.283c-5.263,-2.734 -17.634,-6.863 -36.667,-6.863c-47.867,0 -80.633,32.534 -80.633,81.1c-0,50.85 32.533,78.338 76.066,78.338c18.775,-0 33.675,-3.659 40.788,-7.313l-3.909,-16.046c-8.016,3.888 -20.383,6.43 -32.75,6.43c-37.354,-0 -59.112,-24.067 -59.112,-62.105c-0,-40.558 24.05,-63.675 60.25,-63.675" style="fill:#636466;fill-rule:nonzero;"/><path d="M565.966,341.704l-74.696,0l0,-64.592l-20.158,0l-0,154.392l20.158,0l0,-72.4l74.696,0l-0,72.4l20.162,0l0,-154.392l-20.162,0l-0,64.592Z" style="fill:#636466;fill-rule:nonzero;"/><path d="M675.972,417.762c-31.634,0 -49.5,-29.566 -49.5,-62.775c-0,-33.666 16.516,-64.379 49.708,-64.379c33.238,0 49.267,32.092 49.267,63.004c-0,35.055 -17.867,64.15 -49.475,64.15m0.908,-143.412c-41.233,-0 -71.479,32.067 -71.479,81.1c-0,46.729 28.408,78.567 69.408,78.567c39.413,-0 71.709,-28.392 71.709,-81.317c-0,-46.054 -27.255,-78.35 -69.638,-78.35" style="fill:#636466;fill-rule:nonzero;"/><path d="M654.658,266.338c6.867,0 11.225,-5.275 11.225,-11.696c0,-6.416 -4.587,-11.454 -10.991,-11.454c-6.429,0 -11.229,5.284 -11.229,11.454c-0,6.421 4.566,11.696 10.995,11.696" style="fill:#636466;fill-rule:nonzero;"/><path d="M697.029,266.338c7.116,0 11.458,-5.275 11.458,-11.696c0,-6.416 -4.579,-11.454 -10.996,-11.454c-6.646,0 -11.446,5.284 -11.446,11.454c0,6.421 4.575,11.696 10.984,11.696" style="fill:#636466;fill-rule:nonzero;"/><path d="M857.254,339.654c0,24.062 0.463,42.862 2.309,63.475l-0.7,0.212c-7.105,-15.796 -16.263,-32.054 -27.488,-50.175l-49.267,-78.104l-21.991,-0l-0,154.392l18.787,-0l0,-65.967c0,-25.65 -0.229,-44.213 -1.387,-63.683l0.7,-0.238c7.55,16.725 17.841,34.383 28.629,51.55l49.033,78.338l20.15,-0l0,-154.392l-18.775,-0l0,64.592Z" style="fill:#636466;fill-rule:nonzero;"/><path d="M1038.5,352.955c-4.821,19.217 -9.179,36.429 -12.396,53.367l-0.437,-0c-2.308,-16.263 -6.408,-34.588 -10.763,-52.925l-18.8,-78.334l-20.845,0l-20.617,77.892c-5.267,19.917 -10.088,38.25 -12.6,53.6l-0.467,-0c-2.75,-14.883 -6.871,-34.125 -11.437,-53.388l-18.334,-78.104l-21.083,0l39.183,154.388l20.846,-0l21.992,-80.388c5.733,-19.937 9.387,-35.054 11.9,-50.404l0.471,0c2.071,15.583 5.262,30.7 10.083,50.404l19.475,80.388l20.846,-0l43.746,-154.388l-20.379,0l-20.384,77.892Z" style="fill:#636466;fill-rule:nonzero;"/><path d="M1112.3,357.077l59.795,-0l0,-16.488l-59.795,0l-0,-48.804l63.475,0l-0,-16.725l-83.625,0l-0,154.392l87.029,-0l-0,-16.704l-66.879,-0l-0,-55.671Z" style="fill:#636466;fill-rule:nonzero;"/><path d="M1408.09,275.062l-223.133,-0l-0,16.958l46.958,0l-0,137.434l20.175,-0l-0,-137.434l88.633,0l0,137.434l20.171,-0l0,-137.434l47.196,0l-0,-16.958Z" style="fill:#636466;fill-rule:nonzero;"/><path d="M1439.04,357.077l59.8,-0l0,-16.488l-59.8,0l0,-48.804l63.454,0l0,-16.725l-83.604,0l0,154.392l87.054,-0l0,-16.704l-66.904,-0l0,-55.671Z" style="fill:#636466;fill-rule:nonzero;"/><path d="M1559.87,347.458l-20.404,-0l-0,-56.354c3.445,-0.925 10.108,-1.6 19.704,-1.6c21.083,-0 35.521,8.704 35.521,28.629c-0,17.629 -13.534,29.325 -34.821,29.325m48.337,39.625c-3.658,-16.025 -10.762,-27.042 -22.458,-31.171l-0,-0.675c16.029,-5.496 28.887,-19.004 28.887,-39.175c0,-12.138 -4.591,-22.671 -12.162,-29.542c-9.383,-8.479 -23.363,-12.596 -44.675,-12.596c-13.513,0 -28.163,1.371 -38.25,3.188l-0,152.342l19.917,-0l-0,-66.875l18.795,-0c18.1,0.675 26.58,8.708 31.171,30c4.096,19.266 7.546,32.308 10.088,36.875l20.612,-0c-3.216,-5.938 -6.891,-20.846 -11.925,-42.371" style="fill:#636466;fill-rule:nonzero;"/></svg>