<?xml version="1.0" encoding="UTF-8" standalone="no"?><!DOCTYPE svg PUBLIC "-//W3C//DTD SVG 1.1//EN" "http://www.w3.org/Graphics/SVG/1.1/DTD/svg11.dtd"><svg width="100%" height="100%" viewBox="0 0 163 45" version="1.1" xmlns="http://www.w3.org/2000/svg" xmlns:xlink="http://www.w3.org/1999/xlink" xml:space="preserve" xmlns:serif="http://www.serif.com/" style="fill-rule:evenodd;clip-rule:evenodd;stroke-linejoin:round;stroke-miterlimit:2;"><path d="M29.049,2.942c0.546,-0.411 -10.62,-3.296 -13.786,-2.906c-2.906,0.358 -2.727,2.24 -5.162,2.435c-2.435,0.195 -6.819,-3.117 -9.059,-1.996c-2.399,1.199 1.221,10.989 0.877,15.243c-0.253,3.126 -1.749,12.517 -1.899,15.049c-0.244,4.109 1.861,14.076 2.34,13.863c0.439,-0.195 -2.094,-8.328 -1.026,-15.013c0.57,-3.562 2.439,-11.964 2.439,-14.695c0,-5.893 -2.777,-11.152 -1.462,-12.419c1.167,-1.123 4.127,1.419 7.351,1.283c3.458,-0.146 4.238,-2.484 7.988,-2.532c4.919,-0.064 11.009,1.98 11.399,1.688" style="fill:#0066b3;fill-rule:nonzero;"/><g transform="matrix(0.24,0,0,0.24,-61.9673,-46.1259)"><g transform="matrix(50,0,0,50,310.239,279.206)"><path d="M0.493,0c0.008,0 0.014,-0.006 0.014,-0.014l0,-0.092c0,-0.008 -0.006,-0.014 -0.014,-0.014l-0.301,0l0.307,-0.459c0.005,-0.007 0.008,-0.018 0.008,-0.026l0,-0.079c0,-0.008 -0.006,-0.014 -0.014,-0.014l-0.433,0c-0.008,0 -0.014,0.006 -0.014,0.014l0,0.092c0,0.008 0.006,0.014 0.014,0.014l0.281,0l-0.31,0.462c-0.005,0.007 -0.008,0.018 -0.008,0.026l0,0.076c0,0.008 0.006,0.014 0.014,0.014l0.456,0Z" style="fill:#778d9d;fill-rule:nonzero;"/></g><g transform="matrix(50,0,0,50,336.739,279.206)"><path d="M0.42,0.01c0.019,0 0.041,-0.002 0.064,-0.007c0.008,-0.001 0.014,-0.009 0.014,-0.017l0,-0.04c0,-0.005 -0.005,-0.009 -0.01,-0.009c-0.004,0.001 -0.008,0.001 -0.012,0.001c-0.018,0 -0.034,-0.006 -0.034,-0.031l0,-0.267c0,-0.116 -0.102,-0.15 -0.191,-0.15c-0.075,0 -0.216,0.024 -0.193,0.164c0.001,0.008 0.009,0.014 0.017,0.014l0.098,0c0.008,0 0.014,-0.006 0.013,-0.014c-0.006,-0.043 0.01,-0.081 0.065,-0.081c0.05,0 0.061,0.038 0.061,0.067l0,0.047c0,0.006 -0.005,0.015 -0.017,0.016l-0.07,0.008c-0.097,0.011 -0.194,0.03 -0.194,0.149c0,0.101 0.073,0.15 0.158,0.15c0.052,0 0.095,-0.024 0.136,-0.061c0.007,0.043 0.045,0.061 0.095,0.061Zm-0.108,-0.24l0,0.122c-0.018,0.016 -0.041,0.024 -0.067,0.024c-0.047,0 -0.074,-0.037 -0.074,-0.069c0,-0.031 0.018,-0.06 0.054,-0.065l0.087,-0.012Z" style="fill:#778d9d;fill-rule:nonzero;"/></g><g transform="matrix(50,0,0,50,362.139,279.206)"><path d="M0.26,-0.4c0.043,0 0.077,0.018 0.077,0.077l0,0.309c0,0.008 0.006,0.014 0.014,0.014l0.102,0c0.008,0 0.014,-0.006 0.014,-0.014l0,-0.352c0,-0.09 -0.065,-0.144 -0.149,-0.144c-0.053,0 -0.101,0.026 -0.133,0.082l0,-0.256c0,-0.008 -0.006,-0.014 -0.014,-0.014l-0.103,0c-0.008,0 -0.014,0.006 -0.014,0.014l0,0.67c0,0.008 0.006,0.014 0.014,0.014l0.102,0c0.008,0 0.014,-0.006 0.014,-0.014l0,-0.309c0,-0.055 0.033,-0.077 0.076,-0.077Z" style="fill:#778d9d;fill-rule:nonzero;"/></g><g transform="matrix(50,0,0,50,388.189,279.206)"><path d="M0.26,-0.4c0.043,0 0.077,0.018 0.077,0.077l0,0.309c0,0.008 0.006,0.014 0.014,0.014l0.102,0c0.008,0 0.014,-0.006 0.014,-0.014l0,-0.352c0,-0.092 -0.076,-0.144 -0.154,-0.144c-0.055,0 -0.111,0.026 -0.143,0.082l-0.004,-0.058c-0.001,-0.008 -0.007,-0.014 -0.015,-0.014l-0.083,0c-0.008,0 -0.014,0.006 -0.014,0.014l0,0.472c0,0.008 0.006,0.014 0.014,0.014l0.102,0c0.008,0 0.014,-0.006 0.014,-0.014l0,-0.309c0,-0.043 0.033,-0.077 0.076,-0.077Z" style="fill:#778d9d;fill-rule:nonzero;"/></g><g transform="matrix(50,0,0,50,414.239,279.206)"><path d="M0.42,0.01c0.019,0 0.041,-0.002 0.064,-0.007c0.008,-0.001 0.014,-0.009 0.014,-0.017l0,-0.04c0,-0.005 -0.005,-0.009 -0.01,-0.009c-0.004,0.001 -0.008,0.001 -0.012,0.001c-0.018,0 -0.034,-0.006 -0.034,-0.031l0,-0.267c0,-0.116 -0.102,-0.15 -0.191,-0.15c-0.075,0 -0.216,0.024 -0.193,0.164c0.001,0.008 0.009,0.014 0.017,0.014l0.098,0c0.008,0 0.014,-0.006 0.013,-0.014c-0.006,-0.043 0.01,-0.081 0.065,-0.081c0.05,0 0.061,0.038 0.061,0.067l0,0.047c0,0.006 -0.005,0.015 -0.017,0.016l-0.07,0.008c-0.097,0.011 -0.194,0.03 -0.194,0.149c0,0.101 0.073,0.15 0.158,0.15c0.052,0 0.095,-0.024 0.136,-0.061c0.007,0.043 0.045,0.061 0.095,0.061Zm-0.108,-0.24l0,0.122c-0.018,0.016 -0.041,0.024 -0.067,0.024c-0.047,0 -0.074,-0.037 -0.074,-0.069c0,-0.031 0.018,-0.06 0.054,-0.065l0.087,-0.012Z" style="fill:#778d9d;fill-rule:nonzero;"/></g><g transform="matrix(50,0,0,50,439.639,279.206)"><path d="M0.251,-0.401c0.032,0 0.044,0.02 0.046,0.064c0,0.007 0.007,0.012 0.014,0.011l0.106,-0.024c0.007,-0.002 0.014,-0.009 0.015,-0.017c0.008,-0.103 -0.059,-0.145 -0.124,-0.145c-0.05,0 -0.103,0.028 -0.138,0.084l-0.004,-0.058c-0.001,-0.008 -0.007,-0.014 -0.015,-0.014l-0.083,0c-0.008,0 -0.014,0.006 -0.014,0.014l0,0.472c0,0.008 0.006,0.014 0.014,0.014l0.102,0c0.008,0 0.014,-0.006 0.014,-0.014l0,-0.309c0,-0.04 0.022,-0.078 0.067,-0.078Z" style="fill:#778d9d;fill-rule:nonzero;"/></g><g transform="matrix(50,0,0,50,461.539,279.206)"><path d="M0.408,0c0.008,0 0.014,-0.006 0.014,-0.014l0,-0.079c0,-0.008 -0.006,-0.014 -0.014,-0.014l-0.211,0l0.216,-0.283c0.006,-0.007 0.009,-0.016 0.009,-0.025l0,-0.071c0,-0.008 -0.006,-0.014 -0.014,-0.014l-0.354,0c-0.008,0 -0.014,0.006 -0.014,0.014l0,0.079c0,0.008 0.006,0.014 0.014,0.014l0.199,0l-0.215,0.281c-0.005,0.007 -0.008,0.016 -0.008,0.025l0,0.073c0,0.008 0.006,0.014 0.014,0.014l0.364,0Z" style="fill:#778d9d;fill-rule:nonzero;"/></g><g transform="matrix(50,0,0,50,484.139,279.206)"><path d="M0.024,-0.5c-0.008,0 -0.014,0.006 -0.014,0.014l0,0.065c0,0.008 0.006,0.014 0.014,0.014l0.055,0l0,0.276c0,0.105 0.042,0.139 0.125,0.139c0.024,0 0.052,-0.003 0.083,-0.008c0.008,-0.001 0.014,-0.008 0.014,-0.016l0,-0.051c0,-0.007 -0.006,-0.013 -0.014,-0.012c-0.009,0.001 -0.018,0.001 -0.025,0.001c-0.041,0 -0.053,-0.022 -0.053,-0.068l0,-0.261l0.078,0c0.008,0 0.014,-0.006 0.014,-0.014l0,-0.065c0,-0.008 -0.006,-0.014 -0.014,-0.014l-0.078,0l0,-0.112c0,-0.008 -0.006,-0.014 -0.014,-0.014l-0.102,0c-0.008,0 -0.014,0.006 -0.014,0.014l0,0.112l-0.055,0Z" style="fill:#778d9d;fill-rule:nonzero;"/></g><g transform="matrix(50,0,0,50,499.889,279.206)"><path d="M0.263,-0.417c0.076,0 0.081,0.105 0.081,0.167c0,0.062 -0.005,0.167 -0.081,0.167c-0.076,0 -0.081,-0.105 -0.081,-0.167c0,-0.062 0.005,-0.167 0.081,-0.167Zm0.041,-0.093c-0.058,0 -0.102,0.031 -0.136,0.084l-0.003,-0.06c-0.001,-0.008 -0.007,-0.014 -0.015,-0.014l-0.082,0c-0.008,0 -0.014,0.006 -0.014,0.014l0,0.672c0,0.008 0.006,0.014 0.014,0.014l0.102,0c0.008,0 0.014,-0.006 0.014,-0.014l0,-0.243c0.027,0.045 0.077,0.067 0.133,0.067c0.104,0 0.165,-0.094 0.165,-0.26c0,-0.125 -0.042,-0.26 -0.178,-0.26Z" style="fill:#778d9d;fill-rule:nonzero;"/></g><g transform="matrix(50,0,0,50,525.539,279.206)"><path d="M0.251,-0.401c0.032,0 0.044,0.02 0.046,0.064c0,0.007 0.007,0.012 0.014,0.011l0.106,-0.024c0.007,-0.002 0.014,-0.009 0.015,-0.017c0.008,-0.103 -0.059,-0.145 -0.124,-0.145c-0.05,0 -0.103,0.028 -0.138,0.084l-0.004,-0.058c-0.001,-0.008 -0.007,-0.014 -0.015,-0.014l-0.083,0c-0.008,0 -0.014,0.006 -0.014,0.014l0,0.472c0,0.008 0.006,0.014 0.014,0.014l0.102,0c0.008,0 0.014,-0.006 0.014,-0.014l0,-0.309c0,-0.04 0.022,-0.078 0.067,-0.078Z" style="fill:#778d9d;fill-rule:nonzero;"/></g><g transform="matrix(50,0,0,50,547.439,279.206)"><path d="M0.42,0.01c0.019,0 0.041,-0.002 0.064,-0.007c0.008,-0.001 0.014,-0.009 0.014,-0.017l0,-0.04c0,-0.005 -0.005,-0.009 -0.01,-0.009c-0.004,0.001 -0.008,0.001 -0.012,0.001c-0.018,0 -0.034,-0.006 -0.034,-0.031l0,-0.267c0,-0.116 -0.102,-0.15 -0.191,-0.15c-0.075,0 -0.216,0.024 -0.193,0.164c0.001,0.008 0.009,0.014 0.017,0.014l0.098,0c0.008,0 0.014,-0.006 0.013,-0.014c-0.006,-0.043 0.01,-0.081 0.065,-0.081c0.05,0 0.061,0.038 0.061,0.067l0,0.047c0,0.006 -0.005,0.015 -0.017,0.016l-0.07,0.008c-0.097,0.011 -0.194,0.03 -0.194,0.149c0,0.101 0.073,0.15 0.158,0.15c0.052,0 0.095,-0.024 0.136,-0.061c0.007,0.043 0.045,0.061 0.095,0.061Zm-0.108,-0.24l0,0.122c-0.018,0.016 -0.041,0.024 -0.067,0.024c-0.047,0 -0.074,-0.037 -0.074,-0.069c0,-0.031 0.018,-0.06 0.054,-0.065l0.087,-0.012Z" style="fill:#778d9d;fill-rule:nonzero;"/></g><g transform="matrix(50,0,0,50,572.839,279.206)"><path d="M0.251,-0.154l0.078,0.142c0.004,0.007 0.013,0.012 0.021,0.012l0.138,0c0.006,0 0.009,-0.007 0.006,-0.011l-0.175,-0.247l0.166,-0.231c0.003,-0.004 0,-0.011 -0.006,-0.011l-0.137,0c-0.008,0 -0.017,0.005 -0.021,0.012l-0.07,0.121l-0.07,-0.121c-0.004,-0.007 -0.013,-0.012 -0.021,-0.012l-0.137,0c-0.006,0 -0.009,0.007 -0.006,0.011l0.166,0.231l-0.175,0.247c-0.003,0.004 0,0.011 0.006,0.011l0.138,0c0.008,0 0.017,-0.005 0.021,-0.012l0.078,-0.142Z" style="fill:#778d9d;fill-rule:nonzero;"/></g><g transform="matrix(50,0,0,50,597.939,279.206)"><path d="M0.174,0c0.008,0 0.014,-0.006 0.014,-0.014l0,-0.472c0,-0.008 -0.006,-0.014 -0.014,-0.014l-0.102,0c-0.008,0 -0.014,0.006 -0.014,0.014l0,0.472c0,0.008 0.006,0.014 0.014,0.014l0.102,0Zm0,-0.573c0.008,0 0.014,-0.006 0.014,-0.014l0,-0.097c0,-0.008 -0.006,-0.014 -0.014,-0.014l-0.102,0c-0.008,0 -0.014,0.006 -0.014,0.014l0,0.097c0,0.008 0.006,0.014 0.014,0.014l0.102,0Z" style="fill:#778d9d;fill-rule:nonzero;"/></g><g transform="matrix(50,0,0,50,610.239,279.206)"><path d="M0.043,-0.146c-0.007,0 -0.013,0.007 -0.013,0.014c0,0.099 0.082,0.142 0.195,0.142c0.113,0 0.218,-0.037 0.218,-0.156c0,-0.17 -0.264,-0.136 -0.264,-0.224c0,-0.029 0.021,-0.049 0.058,-0.049c0.043,0 0.064,0.024 0.059,0.057c-0.001,0.008 0.004,0.014 0.012,0.014l0.108,0c0.007,0 0.014,-0.007 0.015,-0.014c0.015,-0.11 -0.101,-0.148 -0.194,-0.148c-0.093,0 -0.198,0.049 -0.198,0.156c0,0.179 0.265,0.146 0.265,0.225c0,0.031 -0.033,0.046 -0.076,0.046c-0.037,0 -0.062,-0.014 -0.067,-0.049c-0.001,-0.009 -0.007,-0.014 -0.016,-0.014l-0.102,0Z" style="fill:#778d9d;fill-rule:nonzero;"/></g><g transform="matrix(50,0,0,50,310.239,334.206)"><path d="M0.069,-0.014c0,0.008 0.006,0.014 0.014,0.014l0.209,0c0.27,0 0.301,-0.143 0.301,-0.349c0,-0.206 -0.031,-0.349 -0.301,-0.349l-0.209,0c-0.008,0 -0.014,0.006 -0.014,0.014l0,0.67Zm0.223,-0.564c0.147,0 0.16,0.101 0.161,0.229c-0.001,0.128 -0.014,0.229 -0.161,0.229l-0.09,0l0,-0.458l0.09,0Z" style="fill:#778d9d;fill-rule:nonzero;"/></g><g transform="matrix(50,0,0,50,341.889,334.206)"><path d="M0.251,-0.401c0.032,0 0.044,0.02 0.046,0.064c0,0.007 0.007,0.012 0.014,0.011l0.106,-0.024c0.007,-0.002 0.014,-0.009 0.015,-0.017c0.008,-0.103 -0.059,-0.145 -0.124,-0.145c-0.05,0 -0.103,0.028 -0.138,0.084l-0.004,-0.058c-0.001,-0.008 -0.007,-0.014 -0.015,-0.014l-0.083,0c-0.008,0 -0.014,0.006 -0.014,0.014l0,0.472c0,0.008 0.006,0.014 0.014,0.014l0.102,0c0.008,0 0.014,-0.006 0.014,-0.014l0,-0.309c0,-0.04 0.022,-0.078 0.067,-0.078Z" style="fill:#778d9d;fill-rule:nonzero;"/></g><g transform="matrix(50,0,0,50,363.789,334.206)"><path d="M0.171,0c0.008,0 0.014,-0.006 0.014,-0.014l0,-0.112c0,-0.008 -0.006,-0.014 -0.014,-0.014l-0.117,0c-0.008,0 -0.014,0.006 -0.014,0.014l0,0.112c0,0.008 0.006,0.014 0.014,0.014l0.117,0Z" style="fill:#778d9d;fill-rule:nonzero;"/></g><g transform="matrix(50,0,0,50,387.539,334.206)"><path d="M0.253,-0.4c0.039,0 0.069,0.016 0.069,0.069l0,0.317c0,0.008 0.006,0.014 0.014,0.014l0.102,0c0.008,0 0.014,-0.006 0.014,-0.014l0,-0.317c0,-0.039 0.029,-0.069 0.068,-0.069c0.039,0 0.069,0.016 0.069,0.069l0,0.317c0,0.008 0.006,0.014 0.014,0.014l0.102,0c0.008,0 0.014,-0.006 0.014,-0.014l0,-0.352c0,-0.092 -0.06,-0.144 -0.138,-0.144c-0.054,0 -0.109,0.025 -0.141,0.079c-0.022,-0.051 -0.069,-0.079 -0.126,-0.079c-0.055,0 -0.111,0.026 -0.143,0.082l-0.004,-0.058c-0.001,-0.008 -0.007,-0.014 -0.015,-0.014l-0.083,0c-0.008,0 -0.014,0.006 -0.014,0.014l0,0.472c0,0.008 0.006,0.014 0.014,0.014l0.102,0c0.008,0 0.014,-0.006 0.014,-0.014l0,-0.317c0,-0.039 0.029,-0.069 0.068,-0.069Z" style="fill:#778d9d;fill-rule:nonzero;"/></g><g transform="matrix(50,0,0,50,426.239,334.206)"><path d="M0.334,-0.142c-0.002,0.04 -0.03,0.059 -0.074,0.059c-0.062,0 -0.081,-0.063 -0.085,-0.126l0.275,0c0.008,0 0.015,-0.006 0.016,-0.014c0.033,-0.193 -0.06,-0.287 -0.199,-0.287c-0.158,0 -0.232,0.119 -0.232,0.26c0,0.142 0.067,0.26 0.225,0.26c0.085,0 0.203,-0.023 0.202,-0.152c0,-0.007 -0.007,-0.014 -0.015,-0.014l-0.098,0c-0.008,0 -0.014,0.006 -0.015,0.014Zm-0.067,-0.275c0.074,0 0.08,0.072 0.066,0.127l-0.158,0c0.004,-0.063 0.029,-0.127 0.092,-0.127Z" style="fill:#778d9d;fill-rule:nonzero;"/></g><g transform="matrix(50,0,0,50,451.439,334.206)"><path d="M0.249,-0.083c-0.076,0 -0.081,-0.105 -0.081,-0.167c0,-0.062 0.005,-0.167 0.081,-0.167c0.076,0 0.081,0.105 0.081,0.167c0,0.062 -0.005,0.167 -0.081,0.167Zm-0.041,0.093c0.058,0 0.102,-0.031 0.136,-0.084l0.003,0.06c0.001,0.008 0.007,0.014 0.015,0.014l0.082,0c0.008,0 0.014,-0.006 0.014,-0.014l0,-0.67c0,-0.008 -0.006,-0.014 -0.014,-0.014l-0.102,0c-0.008,0 -0.014,0.006 -0.014,0.014l0,0.241c-0.028,-0.044 -0.078,-0.067 -0.133,-0.067c-0.104,0 -0.165,0.094 -0.165,0.26c0,0.125 0.042,0.26 0.178,0.26Z" style="fill:#778d9d;fill-rule:nonzero;"/></g><g transform="matrix(50,0,0,50,476.989,334.206)"><path d="M0.171,0c0.008,0 0.014,-0.006 0.014,-0.014l0,-0.112c0,-0.008 -0.006,-0.014 -0.014,-0.014l-0.117,0c-0.008,0 -0.014,0.006 -0.014,0.014l0,0.112c0,0.008 0.006,0.014 0.014,0.014l0.117,0Z" style="fill:#778d9d;fill-rule:nonzero;"/></g><g transform="matrix(50,0,0,50,500.739,334.206)"><path d="M0.249,-0.083c-0.076,0 -0.081,-0.105 -0.081,-0.167c0,-0.062 0.005,-0.167 0.081,-0.167c0.076,0 0.081,0.105 0.081,0.167c0,0.062 -0.005,0.167 -0.081,0.167Zm-0.041,0.093c0.058,0 0.102,-0.031 0.136,-0.084l0.003,0.06c0.001,0.008 0.007,0.014 0.015,0.014l0.082,0c0.008,0 0.014,-0.006 0.014,-0.014l0,-0.67c0,-0.008 -0.006,-0.014 -0.014,-0.014l-0.102,0c-0.008,0 -0.014,0.006 -0.014,0.014l0,0.241c-0.028,-0.044 -0.078,-0.067 -0.133,-0.067c-0.104,0 -0.165,0.094 -0.165,0.26c0,0.125 0.042,0.26 0.178,0.26Z" style="fill:#778d9d;fill-rule:nonzero;"/></g><g transform="matrix(50,0,0,50,526.289,334.206)"><path d="M0.334,-0.142c-0.002,0.04 -0.03,0.059 -0.074,0.059c-0.062,0 -0.081,-0.063 -0.085,-0.126l0.275,0c0.008,0 0.015,-0.006 0.016,-0.014c0.033,-0.193 -0.06,-0.287 -0.199,-0.287c-0.158,0 -0.232,0.119 -0.232,0.26c0,0.142 0.067,0.26 0.225,0.26c0.085,0 0.203,-0.023 0.202,-0.152c0,-0.007 -0.007,-0.014 -0.015,-0.014l-0.098,0c-0.008,0 -0.014,0.006 -0.015,0.014Zm-0.067,-0.275c0.074,0 0.08,0.072 0.066,0.127l-0.158,0c0.004,-0.063 0.029,-0.127 0.092,-0.127Z" style="fill:#778d9d;fill-rule:nonzero;"/></g><g transform="matrix(50,0,0,50,551.489,334.206)"><path d="M0.26,-0.4c0.043,0 0.077,0.018 0.077,0.077l0,0.309c0,0.008 0.006,0.014 0.014,0.014l0.102,0c0.008,0 0.014,-0.006 0.014,-0.014l0,-0.352c0,-0.092 -0.076,-0.144 -0.154,-0.144c-0.055,0 -0.111,0.026 -0.143,0.082l-0.004,-0.058c-0.001,-0.008 -0.007,-0.014 -0.015,-0.014l-0.083,0c-0.008,0 -0.014,0.006 -0.014,0.014l0,0.472c0,0.008 0.006,0.014 0.014,0.014l0.102,0c0.008,0 0.014,-0.006 0.014,-0.014l0,-0.309c0,-0.043 0.033,-0.077 0.076,-0.077Z" style="fill:#778d9d;fill-rule:nonzero;"/></g><g transform="matrix(50,0,0,50,577.539,334.206)"><path d="M0.024,-0.5c-0.008,0 -0.014,0.006 -0.014,0.014l0,0.065c0,0.008 0.006,0.014 0.014,0.014l0.055,0l0,0.276c0,0.105 0.042,0.139 0.125,0.139c0.024,0 0.052,-0.003 0.083,-0.008c0.008,-0.001 0.014,-0.008 0.014,-0.016l0,-0.051c0,-0.007 -0.006,-0.013 -0.014,-0.012c-0.009,0.001 -0.018,0.001 -0.025,0.001c-0.041,0 -0.053,-0.022 -0.053,-0.068l0,-0.261l0.078,0c0.008,0 0.014,-0.006 0.014,-0.014l0,-0.065c0,-0.008 -0.006,-0.014 -0.014,-0.014l-0.078,0l0,-0.112c0,-0.008 -0.006,-0.014 -0.014,-0.014l-0.102,0c-0.008,0 -0.014,0.006 -0.014,0.014l0,0.112l-0.055,0Z" style="fill:#778d9d;fill-rule:nonzero;"/></g><g transform="matrix(50,0,0,50,593.289,334.206)"><path d="M0.171,0c0.008,0 0.014,-0.006 0.014,-0.014l0,-0.112c0,-0.008 -0.006,-0.014 -0.014,-0.014l-0.117,0c-0.008,0 -0.014,0.006 -0.014,0.014l0,0.112c0,0.008 0.006,0.014 0.014,0.014l0.117,0Z" style="fill:#778d9d;fill-rule:nonzero;"/></g><g transform="matrix(50,0,0,50,617.039,334.206)"><path d="M0.226,-0.013c0.003,0.007 0.011,0.013 0.019,0.013l0.104,0c0.008,0 0.016,-0.006 0.019,-0.013l0.228,-0.672c0.003,-0.006 -0.002,-0.013 -0.009,-0.013l-0.108,0c-0.008,0 -0.016,0.006 -0.018,0.013l-0.164,0.508l-0.164,-0.508c-0.002,-0.007 -0.01,-0.013 -0.018,-0.013l-0.108,0c-0.007,0 -0.012,0.007 -0.009,0.013l0.228,0.672Z" style="fill:#778d9d;fill-rule:nonzero;"/></g><g transform="matrix(50,0,0,50,645.189,334.206)"><path d="M0.259,-0.51c-0.159,0 -0.224,0.113 -0.224,0.26c0,0.147 0.065,0.26 0.224,0.26c0.159,0 0.224,-0.113 0.224,-0.26c0,-0.147 -0.065,-0.26 -0.224,-0.26Zm0,0.093c0.081,0 0.086,0.105 0.086,0.167c0,0.062 -0.005,0.167 -0.086,0.167c-0.081,0 -0.086,-0.105 -0.086,-0.167c0,-0.062 0.005,-0.167 0.086,-0.167Z" style="fill:#778d9d;fill-rule:nonzero;"/></g><g transform="matrix(50,0,0,50,671.089,334.206)"><path d="M0.068,-0.698c-0.008,0 -0.014,0.006 -0.014,0.014l0,0.589c0,0.086 0.059,0.103 0.109,0.103c0.019,0 0.041,-0.002 0.064,-0.007c0.008,-0.001 0.014,-0.009 0.014,-0.017l0,-0.055c0,-0.005 -0.004,-0.009 -0.009,-0.009c-0.004,0.001 -0.008,0.001 -0.012,0.001c-0.018,0 -0.034,-0.006 -0.034,-0.031l0,-0.574c0,-0.008 -0.006,-0.014 -0.014,-0.014l-0.104,0Z" style="fill:#778d9d;fill-rule:nonzero;"/></g><g transform="matrix(50,0,0,50,684.139,334.206)"><path d="M0.474,0c0.006,0 0.01,-0.007 0.006,-0.012l-0.156,-0.238l0.141,-0.238c0.003,-0.005 -0.001,-0.012 -0.007,-0.012l-0.113,0c-0.008,0 -0.017,0.005 -0.021,0.012l-0.131,0.226c-0.004,0.007 -0.004,0.017 0,0.024l0.143,0.226c0.004,0.007 0.013,0.012 0.021,0.012l0.117,0Zm-0.304,0c0.008,0 0.014,-0.006 0.014,-0.014l0,-0.67c0,-0.008 -0.006,-0.014 -0.014,-0.014l-0.102,0c-0.008,0 -0.014,0.006 -0.014,0.014l0,0.67c0,0.008 0.006,0.014 0.014,0.014l0.102,0Z" style="fill:#778d9d;fill-rule:nonzero;"/></g><g transform="matrix(50,0,0,50,707.339,334.206)"><path d="M0.334,-0.142c-0.002,0.04 -0.03,0.059 -0.074,0.059c-0.062,0 -0.081,-0.063 -0.085,-0.126l0.275,0c0.008,0 0.015,-0.006 0.016,-0.014c0.033,-0.193 -0.06,-0.287 -0.199,-0.287c-0.158,0 -0.232,0.119 -0.232,0.26c0,0.142 0.067,0.26 0.225,0.26c0.085,0 0.203,-0.023 0.202,-0.152c0,-0.007 -0.007,-0.014 -0.015,-0.014l-0.098,0c-0.008,0 -0.014,0.006 -0.015,0.014Zm-0.067,-0.275c0.074,0 0.08,0.072 0.066,0.127l-0.158,0c0.004,-0.063 0.029,-0.127 0.092,-0.127Z" style="fill:#778d9d;fill-rule:nonzero;"/></g><g transform="matrix(50,0,0,50,732.539,334.206)"><path d="M0.251,-0.401c0.032,0 0.044,0.02 0.046,0.064c0,0.007 0.007,0.012 0.014,0.011l0.106,-0.024c0.007,-0.002 0.014,-0.009 0.015,-0.017c0.008,-0.103 -0.059,-0.145 -0.124,-0.145c-0.05,0 -0.103,0.028 -0.138,0.084l-0.004,-0.058c-0.001,-0.008 -0.007,-0.014 -0.015,-0.014l-0.083,0c-0.008,0 -0.014,0.006 -0.014,0.014l0,0.472c0,0.008 0.006,0.014 0.014,0.014l0.102,0c0.008,0 0.014,-0.006 0.014,-0.014l0,-0.309c0,-0.04 0.022,-0.078 0.067,-0.078Z" style="fill:#778d9d;fill-rule:nonzero;"/></g><g transform="matrix(50,0,0,50,766.939,334.206)"><path d="M0.584,-0.687c0.003,-0.004 0,-0.011 -0.006,-0.011l-0.125,0c-0.008,0 -0.017,0.005 -0.022,0.012l-0.219,0.325c-0.005,0.007 -0.005,0.017 0,0.023l0.229,0.327c0.005,0.007 0.013,0.011 0.022,0.011l0.135,0c0.006,0 0.009,-0.007 0.006,-0.011l-0.251,-0.349l0.231,-0.327Zm-0.396,0.687c0.008,0 0.014,-0.006 0.014,-0.014l0,-0.67c0,-0.008 -0.006,-0.014 -0.014,-0.014l-0.105,0c-0.008,0 -0.014,0.006 -0.014,0.014l0,0.67c0,0.008 0.006,0.014 0.014,0.014l0.105,0Z" style="fill:#778d9d;fill-rule:nonzero;"/></g><g transform="matrix(50,0,0,50,796.239,334.206)"><path d="M0.261,-0.1c-0.043,0 -0.077,-0.018 -0.077,-0.077l0,-0.309c0,-0.008 -0.006,-0.014 -0.014,-0.014l-0.102,0c-0.008,0 -0.014,0.006 -0.014,0.014l0,0.352c0,0.092 0.076,0.144 0.154,0.144c0.055,0 0.11,-0.026 0.145,-0.082l0.002,0.058c0.001,0.008 0.007,0.014 0.015,0.014l0.083,0c0.008,0 0.014,-0.006 0.014,-0.014l0,-0.472c0,-0.008 -0.006,-0.014 -0.014,-0.014l-0.102,0c-0.008,0 -0.014,0.006 -0.014,0.014l0,0.309c0,0.043 -0.033,0.077 -0.076,0.077Zm-0.056,-0.475c0.008,0 0.014,-0.006 0.014,-0.014l0,-0.068c0,-0.008 -0.006,-0.014 -0.014,-0.014l-0.066,0c-0.008,0 -0.014,0.006 -0.014,0.014l0,0.068c0,0.008 0.006,0.014 0.014,0.014l0.066,0Zm0.178,0c0.008,0 0.014,-0.006 0.014,-0.014l0,-0.068c0,-0.008 -0.006,-0.014 -0.014,-0.014l-0.066,0c-0.008,0 -0.014,0.006 -0.014,0.014l0,0.068c0,0.008 0.006,0.014 0.014,0.014l0.066,0Z" style="fill:#778d9d;fill-rule:nonzero;"/></g><g transform="matrix(50,0,0,50,822.289,334.206)"><path d="M0.043,-0.146c-0.007,0 -0.013,0.007 -0.013,0.014c0,0.099 0.082,0.142 0.195,0.142c0.113,0 0.218,-0.037 0.218,-0.156c0,-0.17 -0.264,-0.136 -0.264,-0.224c0,-0.029 0.021,-0.049 0.058,-0.049c0.043,0 0.064,0.024 0.059,0.057c-0.001,0.008 0.004,0.014 0.012,0.014l0.108,0c0.007,0 0.014,-0.007 0.015,-0.014c0.015,-0.11 -0.101,-0.148 -0.194,-0.148c-0.093,0 -0.198,0.049 -0.198,0.156c0,0.179 0.265,0.146 0.265,0.225c0,0.031 -0.033,0.046 -0.076,0.046c-0.037,0 -0.062,-0.014 -0.067,-0.049c-0.001,-0.009 -0.007,-0.014 -0.016,-0.014l-0.102,0Z" style="fill:#778d9d;fill-rule:nonzero;"/></g><g transform="matrix(50,0,0,50,845.889,334.206)"><path d="M0.263,-0.417c0.076,0 0.081,0.105 0.081,0.167c0,0.062 -0.005,0.167 -0.081,0.167c-0.076,0 -0.081,-0.105 -0.081,-0.167c0,-0.062 0.005,-0.167 0.081,-0.167Zm0.041,-0.093c-0.058,0 -0.102,0.031 -0.136,0.084l-0.003,-0.06c-0.001,-0.008 -0.007,-0.014 -0.015,-0.014l-0.082,0c-0.008,0 -0.014,0.006 -0.014,0.014l0,0.672c0,0.008 0.006,0.014 0.014,0.014l0.102,0c0.008,0 0.014,-0.006 0.014,-0.014l0,-0.243c0.027,0.045 0.077,0.067 0.133,0.067c0.104,0 0.165,-0.094 0.165,-0.26c0,-0.125 -0.042,-0.26 -0.178,-0.26Z" style="fill:#778d9d;fill-rule:nonzero;"/></g><g transform="matrix(50,0,0,50,871.539,334.206)"><path d="M0.334,-0.142c-0.002,0.04 -0.03,0.059 -0.074,0.059c-0.062,0 -0.081,-0.063 -0.085,-0.126l0.275,0c0.008,0 0.015,-0.006 0.016,-0.014c0.033,-0.193 -0.06,-0.287 -0.199,-0.287c-0.158,0 -0.232,0.119 -0.232,0.26c0,0.142 0.067,0.26 0.225,0.26c0.085,0 0.203,-0.023 0.202,-0.152c0,-0.007 -0.007,-0.014 -0.015,-0.014l-0.098,0c-0.008,0 -0.014,0.006 -0.015,0.014Zm-0.067,-0.275c0.074,0 0.08,0.072 0.066,0.127l-0.158,0c0.004,-0.063 0.029,-0.127 0.092,-0.127Z" style="fill:#778d9d;fill-rule:nonzero;"/></g><g transform="matrix(50,0,0,50,896.739,334.206)"><path d="M0.251,-0.401c0.032,0 0.044,0.02 0.046,0.064c0,0.007 0.007,0.012 0.014,0.011l0.106,-0.024c0.007,-0.002 0.014,-0.009 0.015,-0.017c0.008,-0.103 -0.059,-0.145 -0.124,-0.145c-0.05,0 -0.103,0.028 -0.138,0.084l-0.004,-0.058c-0.001,-0.008 -0.007,-0.014 -0.015,-0.014l-0.083,0c-0.008,0 -0.014,0.006 -0.014,0.014l0,0.472c0,0.008 0.006,0.014 0.014,0.014l0.102,0c0.008,0 0.014,-0.006 0.014,-0.014l0,-0.309c0,-0.04 0.022,-0.078 0.067,-0.078Z" style="fill:#778d9d;fill-rule:nonzero;"/></g><g transform="matrix(50,0,0,50,918.639,334.206)"><path d="M0.024,-0.5c-0.008,0 -0.014,0.006 -0.014,0.014l0,0.065c0,0.008 0.006,0.014 0.014,0.014l0.055,0l0,0.276c0,0.105 0.042,0.139 0.125,0.139c0.024,0 0.052,-0.003 0.083,-0.008c0.008,-0.001 0.014,-0.008 0.014,-0.016l0,-0.051c0,-0.007 -0.006,-0.013 -0.014,-0.012c-0.009,0.001 -0.018,0.001 -0.025,0.001c-0.041,0 -0.053,-0.022 -0.053,-0.068l0,-0.261l0.078,0c0.008,0 0.014,-0.006 0.014,-0.014l0,-0.065c0,-0.008 -0.006,-0.014 -0.014,-0.014l-0.078,0l0,-0.112c0,-0.008 -0.006,-0.014 -0.014,-0.014l-0.102,0c-0.008,0 -0.014,0.006 -0.014,0.014l0,0.112l-0.055,0Z" style="fill:#778d9d;fill-rule:nonzero;"/></g></g></svg>